<?xml version="1.0" encoding="UTF-8"?>
<svg version="1.1" xmlns="http://www.w3.org/2000/svg" width="500" height="500">
<path d="M0 0 C165 0 330 0 500 0 C500 165 500 330 500 500 C335 500 170 500 0 500 C0 335 0 170 0 0 Z " fill="#FEFEFE" transform="translate(0,0)"/>
<path d="M0 0 C0.69738281 0.2784375 1.39476562 0.556875 2.11328125 0.84375 C2.84546875 1.12476563 3.57765625 1.40578125 4.33203125 1.6953125 C5.21375 2.26378906 5.21375 2.26378906 6.11328125 2.84375 C7.05226776 7.32199334 7.40373899 10.45028319 6.11328125 14.84375 C7.11746094 14.66457031 8.12164062 14.48539063 9.15625 14.30078125 C18.50852806 12.79183069 25.92378491 12.91695836 35.11328125 15.84375 C35.11328125 17.49375 35.11328125 19.14375 35.11328125 20.84375 C36.09554687 20.79154297 36.09554687 20.79154297 37.09765625 20.73828125 C42.3686514 20.58193817 46.90213295 20.89928388 51.98828125 22.34375 C57.58220347 23.91589808 62.61567431 24.02727324 68.3984375 23.75390625 C71.11328125 23.84375 71.11328125 23.84375 74.11328125 25.84375 C74.55078125 28.28125 74.55078125 28.28125 74.11328125 30.84375 C72.11328125 32.65625 72.11328125 32.65625 70.11328125 33.84375 C69.45328125 33.51375 68.79328125 33.18375 68.11328125 32.84375 C66.62828125 32.34875 66.62828125 32.34875 65.11328125 31.84375 C64.45328125 31.51375 63.79328125 31.18375 63.11328125 30.84375 C61.38126113 30.78266707 59.64684983 30.78365118 57.9140625 30.81640625 C56.86927734 30.82865234 55.82449219 30.84089844 54.74804688 30.85351562 C52.55266342 30.88836298 50.35734134 30.92735025 48.16210938 30.97070312 C42.33150536 31.03147582 37.63399928 30.68398934 32.11328125 28.84375 C29.81975622 28.64184665 29.81975622 28.64184665 27.80078125 28.78125 C24.11328125 28.84375 24.11328125 28.84375 22.11328125 27.84375 C22.60828125 28.895625 23.10328125 29.9475 23.61328125 31.03125 C24.97749859 34.1575814 25.11328125 36.43711511 25.11328125 39.84375 C25.58636719 40.21886719 26.05945313 40.59398437 26.546875 40.98046875 C28.98421257 43.87974561 28.86981882 47.26368673 29.17578125 50.90625 C29.37887472 56.37398478 29.37887472 56.37398478 32.11328125 60.84375 C32.60828125 63.31875 32.60828125 63.31875 33.11328125 65.84375 C33.44328125 57.26375 33.77328125 48.68375 34.11328125 39.84375 C42.11328125 39.84375 42.11328125 39.84375 44.11962891 41.35327148 C44.5841748 42.05009033 45.0487207 42.74690918 45.52734375 43.46484375 C46.06101562 44.23634766 46.5946875 45.00785156 47.14453125 45.80273438 C47.9334375 47.02959961 47.9334375 47.02959961 48.73828125 48.28125 C49.27195312 49.06435547 49.805625 49.84746094 50.35546875 50.65429688 C51.96916049 53.03370885 53.54048969 55.43710206 55.11328125 57.84375 C57.09328125 60.81375 59.07328125 63.78375 61.11328125 66.84375 C61.44328125 57.93375 61.77328125 49.02375 62.11328125 39.84375 C72.11328125 39.84375 82.11328125 39.84375 92.11328125 39.84375 C92.11328125 42.48375 92.11328125 45.12375 92.11328125 47.84375 C88.15328125 47.84375 84.19328125 47.84375 80.11328125 47.84375 C80.11328125 51.14375 80.11328125 54.44375 80.11328125 57.84375 C85.72328125 57.84375 91.33328125 57.84375 97.11328125 57.84375 C97.11328125 60.48375 97.11328125 63.12375 97.11328125 65.84375 C91.50328125 65.84375 85.89328125 65.84375 80.11328125 65.84375 C80.11328125 68.81375 80.11328125 71.78375 80.11328125 74.84375 C84.07328125 74.84375 88.03328125 74.84375 92.11328125 74.84375 C92.36328125 82.46875 92.36328125 82.46875 90.11328125 85.84375 C130.70328125 85.84375 171.29328125 85.84375 213.11328125 85.84375 C213.11328125 87.82375 213.11328125 89.80375 213.11328125 91.84375 C155.69328125 92.17375 98.27328125 92.50375 39.11328125 92.84375 C38.78328125 96.47375 38.45328125 100.10375 38.11328125 103.84375 C35.92785079 110.30070364 35.92785079 110.30070364 32.11328125 112.84375 C29.36109148 113.08448135 26.70110659 113.21657688 23.9453125 113.2578125 C23.15049973 113.27717865 22.35568695 113.2965448 21.53678894 113.3164978 C18.9998953 113.37624442 16.46295616 113.42265883 13.92578125 113.46875 C12.20505841 113.50693435 10.4843546 113.54598635 8.76367188 113.5859375 C4.5470296 113.68194179 0.33029785 113.76599076 -3.88671875 113.84375 C-3.88671875 114.50375 -3.88671875 115.16375 -3.88671875 115.84375 C-6.88671875 117.84375 -6.88671875 117.84375 -10.32421875 118.28125 C-13.9958329 118.86097855 -15.04826478 119.69044009 -17.88671875 121.84375 C-20.13671875 121.53125 -20.13671875 121.53125 -21.88671875 120.84375 C-21.41095424 112.91434151 -17.38357107 109.1370152 -11.88671875 103.84375 C-12.66015625 103.4725 -12.66015625 103.4725 -13.44921875 103.09375 C-15.88671875 101.84375 -15.88671875 101.84375 -19.07421875 99.71875 C-23.29655694 97.30469369 -27.12824241 97.12913783 -31.88671875 97.84375 C-35.58542823 98.96478743 -38.66753106 100.69762487 -41.88671875 102.84375 C-44.07421875 102.46875 -44.07421875 102.46875 -45.88671875 101.84375 C-46.63671875 99.71875 -46.63671875 99.71875 -46.88671875 96.84375 C-44.54750452 92.43523088 -41.78062352 89.8615262 -37.88671875 86.84375 C-37.24734375 85.956875 -36.60796875 85.07 -35.94921875 84.15625 C-33.37229953 81.26697693 -31.66929799 81.10165313 -27.88671875 80.84375 C-25.99458506 83.22948379 -24.86280092 84.91550348 -23.88671875 87.84375 C-19.42503809 89.33097689 -14.91185082 89.23367512 -10.234375 89.46484375 C-7.21099239 89.80704692 -5.43671268 90.26518233 -2.88671875 91.84375 C-2.76296875 90.750625 -2.63921875 89.6575 -2.51171875 88.53125 C-1.88671875 84.84375 -1.88671875 84.84375 0.11328125 81.84375 C0.46748886 79.46767133 0.46748886 79.46767133 0.42578125 76.90625 C0.44253906 76.05160156 0.45929688 75.19695312 0.4765625 74.31640625 C0.04153613 71.35542034 -0.99113075 70.11659261 -2.88671875 67.84375 C-6.1711239 61.15763952 -5.99984069 56.13939257 -4.88671875 48.84375 C-5.52609375 48.740625 -6.16546875 48.6375 -6.82421875 48.53125 C-7.50484375 48.304375 -8.18546875 48.0775 -8.88671875 47.84375 C-9.21671875 46.85375 -9.54671875 45.86375 -9.88671875 44.84375 C-15.07898571 46.21013604 -19.02098048 48.73052687 -23.421875 51.69921875 C-25.88671875 52.84375 -25.88671875 52.84375 -28.5234375 52.80078125 C-32.43151265 51.21817231 -33.20270676 48.28590646 -34.89453125 44.61328125 C-36.08352539 41.29439602 -36.44131241 38.29196349 -36.63671875 34.79296875 C-36.77143777 32.6254513 -36.77143777 32.6254513 -38.51171875 30.34375 C-40.61640686 26.51704434 -39.64210916 23.02114996 -38.88671875 18.84375 C-37.89671875 18.84375 -36.90671875 18.84375 -35.88671875 18.84375 C-35.88671875 17.85375 -35.88671875 16.86375 -35.88671875 15.84375 C-31.75628397 11.27853261 -31.75628397 11.27853261 -28.88671875 9.84375 C-29.22896484 10.60945312 -29.22896484 10.60945312 -29.578125 11.390625 C-32.6759967 19.22560096 -32.631883 27.2756345 -29.32421875 35.09375 C-28.84984375 36.00125 -28.37546875 36.90875 -27.88671875 37.84375 C-26.56671875 37.84375 -25.24671875 37.84375 -23.88671875 37.84375 C-23.88671875 36.85375 -23.88671875 35.86375 -23.88671875 34.84375 C-21.38671875 33.34375 -21.38671875 33.34375 -18.88671875 31.84375 C-17.97531164 30.85528514 -17.10069851 29.83188726 -16.26171875 28.78125 C-13.88671875 25.84375 -13.88671875 25.84375 -10.88671875 23.84375 C-9.89671875 23.84375 -8.90671875 23.84375 -7.88671875 23.84375 C-7.74234375 23.06 -7.59796875 22.27625 -7.44921875 21.46875 C-6.88671875 18.84375 -6.88671875 18.84375 -5.88671875 16.84375 C-6.81484375 16.946875 -7.74296875 17.05 -8.69921875 17.15625 C-11.88671875 16.84375 -11.88671875 16.84375 -13.82421875 14.78125 C-15.24852195 10.84347056 -15.15167144 8.84943353 -13.88671875 4.84375 C-9.94733179 -0.68071574 -6.42782667 -1.91807261 0 0 Z " fill="#032B6E" transform="translate(84.88671875,204.15625)"/>
<path d="M0 0 C7.41125581 -0.44295513 7.41125581 -0.44295513 10.00634766 1.50952148 C10.7031665 2.55474976 10.7031665 2.55474976 11.4140625 3.62109375 C11.94773438 4.39259766 12.48140625 5.16410156 13.03125 5.95898438 C13.5571875 6.77689453 14.083125 7.59480469 14.625 8.4375 C15.42550781 9.6121582 15.42550781 9.6121582 16.2421875 10.81054688 C17.85587924 13.18995885 19.42720844 15.59335206 21 18 C22.98 20.97 24.96 23.94 27 27 C27.33 18.09 27.66 9.18 28 0 C38 0 48 0 58 0 C58 2.64 58 5.28 58 8 C54.04 8 50.08 8 46 8 C46 11.3 46 14.6 46 18 C51.61 18 57.22 18 63 18 C63 20.64 63 23.28 63 26 C57.39 26 51.78 26 46 26 C46 28.97 46 31.94 46 35 C49.96 35 53.92 35 58 35 C58.25 42.625 58.25 42.625 56 46 C96.59 46 137.18 46 179 46 C179 47.98 179 49.96 179 52 C121.58 52.33 64.16 52.66 5 53 C4.67 56.63 4.34 60.26 4 64 C3.67 64 3.34 64 3 64 C3 59.71 3 55.42 3 51 C60.75 51 118.5 51 178 51 C178 49.68 178 48.36 178 47 C120.25 47 62.5 47 3 47 C-0.44781595 34.35800817 -0.44781595 34.35800817 -0.29296875 27.05078125 C-0.28872391 26.26728806 -0.28447906 25.48379486 -0.28010559 24.67655945 C-0.26357197 22.22149376 -0.2259736 19.76730929 -0.1875 17.3125 C-0.17242022 15.62826723 -0.15873767 13.94402133 -0.14648438 12.25976562 C-0.11375247 8.17284759 -0.0621544 4.08657211 0 0 Z " fill="#BFC5CF" transform="translate(119,244)"/>
<path d="M0 0 C4.98825892 3.56304209 8.44739863 8.02969588 10.390625 13.859375 C11.31484491 21.79446306 10.36439896 28.44051807 5.390625 34.859375 C0.71669923 39.07095199 -3.931889 41.20426451 -10.234375 41.484375 C-16.90584975 41.06976357 -22.01739974 38.94722217 -26.484375 33.921875 C-30.85057358 27.62941234 -31.12505638 22.33675502 -30.609375 14.859375 C-29.33143544 8.2566873 -26.94345159 4.77850464 -21.796875 0.546875 C-15.53365133 -2.74741797 -6.41050099 -2.80219504 0 0 Z " fill="#7E1818" transform="translate(358.609375,246.140625)"/>
<path d="M0 0 C2.61971105 0.03853375 3.84703863 0.14984883 5.85986328 1.86621094 C7.33263829 3.81202087 8.60242205 5.79981284 9.84765625 7.8984375 C10.72308698 9.2818018 11.59940311 10.66460616 12.4765625 12.046875 C13.40339844 13.52414062 14.33023437 15.00140625 15.28515625 16.5234375 C17.59515625 19.8234375 19.90515625 23.1234375 22.28515625 26.5234375 C22.61515625 17.9434375 22.94515625 9.3634375 23.28515625 0.5234375 C25.92515625 0.5234375 28.56515625 0.5234375 31.28515625 0.5234375 C31.28515625 14.7134375 31.28515625 28.9034375 31.28515625 43.5234375 C23.28515625 43.5234375 23.28515625 43.5234375 21.24707031 41.96630859 C20.53115723 40.89243896 20.53115723 40.89243896 19.80078125 39.796875 C19.25808594 39.01183594 18.71539062 38.22679687 18.15625 37.41796875 C17.35380859 36.17080078 17.35380859 36.17080078 16.53515625 34.8984375 C15.98472656 34.09019531 15.43429687 33.28195312 14.8671875 32.44921875 C12.89332534 29.53812708 10.97164273 26.59641919 9.07617188 23.63378906 C7.17767023 20.56171209 7.17767023 20.56171209 4.28515625 18.5234375 C4.28515625 23.4734375 4.28515625 28.4234375 4.28515625 33.5234375 C1.31515625 33.5234375 -1.65484375 33.5234375 -4.71484375 33.5234375 C-4.73949767 28.98446045 -4.75768164 24.44552207 -4.76977539 19.90649414 C-4.77481515 18.36123984 -4.78164695 16.81599034 -4.7902832 15.27075195 C-4.80236451 13.05418721 -4.80807548 10.83768532 -4.8125 8.62109375 C-4.81766129 7.9262941 -4.82282257 7.23149445 -4.82814026 6.51564026 C-4.82833652 4.8511442 -4.77673504 3.18678251 -4.71484375 1.5234375 C-3.71484375 0.5234375 -3.71484375 0.5234375 0 0 Z " fill="#801B1B" transform="translate(393.71484375,243.4765625)"/>
<path d="M0 0 C8 0 8 0 10.00634766 1.50952148 C10.7031665 2.55474976 10.7031665 2.55474976 11.4140625 3.62109375 C11.94773438 4.39259766 12.48140625 5.16410156 13.03125 5.95898438 C13.5571875 6.77689453 14.083125 7.59480469 14.625 8.4375 C15.42550781 9.6121582 15.42550781 9.6121582 16.2421875 10.81054688 C17.85587924 13.18995885 19.42720844 15.59335206 21 18 C22.98 20.97 24.96 23.94 27 27 C27.33 18.09 27.66 9.18 28 0 C30.64 0 33.28 0 36 0 C36 14.19 36 28.38 36 43 C27 43 27 43 24.86425781 41.36694336 C24.39858398 40.61550049 23.93291016 39.86405762 23.453125 39.08984375 C22.91816406 38.26419922 22.38320312 37.43855469 21.83203125 36.58789062 C21.30996094 35.71326172 20.78789062 34.83863281 20.25 33.9375 C19.17219275 32.23807969 18.09407254 30.53885781 17.015625 28.83984375 C16.51095703 28.02112793 16.00628906 27.20241211 15.48632812 26.35888672 C13.45552948 23.13589453 11.25104178 20.07225516 9 17 C8.67 22.28 8.34 27.56 8 33 C5.36 33 2.72 33 0 33 C0 22.11 0 11.22 0 0 Z " fill="#062E70" transform="translate(119,244)"/>
<path d="M0 0 C2.64 0 5.28 0 8 0 C8.33 5.94 8.66 11.88 9 18 C9.99902344 16.78441406 10.99804688 15.56882812 12.02734375 14.31640625 C13.33070159 12.73174815 14.63408851 11.14711397 15.9375 9.5625 C16.59685547 8.76005859 17.25621094 7.95761719 17.93554688 7.13085938 C18.56396484 6.36708984 19.19238281 5.60332031 19.83984375 4.81640625 C20.42113037 4.10943604 21.00241699 3.40246582 21.60131836 2.67407227 C23 1 23 1 24 0 C25.51928038 -0.07179964 27.04167482 -0.08392007 28.5625 -0.0625 C29.38878906 -0.05347656 30.21507812 -0.04445312 31.06640625 -0.03515625 C31.70449219 -0.02355469 32.34257812 -0.01195312 33 0 C31.2583812 5.77253527 27.213585 9.55378379 23.25585938 13.91601562 C22.46211914 14.81030273 22.46211914 14.81030273 21.65234375 15.72265625 C21.16757568 16.25640869 20.68280762 16.79016113 20.18334961 17.34008789 C18.81511861 19.25933744 18.2758239 20.66075623 18 23 C19.66002743 25.67937798 19.66002743 25.67937798 22.0625 28.3125 C23.3 29.75882812 23.3 29.75882812 24.5625 31.234375 C25.366875 32.14703125 26.17125 33.0596875 27 34 C33 40.82258065 33 40.82258065 33 43 C29.41847274 43.82298924 26.56414281 43.97423119 23 43 C18.63924851 39.02700343 14.65289407 34.30578813 12 29 C8.32384179 30.47370219 6.66832407 32.44263399 4.375 35.625 C3.29645027 37.11801426 2.18083049 38.58649355 1 40 C0.34 40 -0.32 40 -1 40 C-1.02464775 34.46411467 -1.04283496 28.928261 -1.05493164 23.39233398 C-1.05997244 21.5075627 -1.06680498 19.62279535 -1.07543945 17.73803711 C-1.08751617 15.03498364 -1.09323068 12.33198169 -1.09765625 9.62890625 C-1.10281754 8.78099014 -1.10797882 7.93307404 -1.11329651 7.0594635 C-1.11349195 5.03928932 -1.06206211 3.01922066 -1 1 C-0.67 0.67 -0.34 0.34 0 0 Z " fill="#0E3474" transform="translate(249,244)"/>
<path d="M0 0 C0.83265381 0.00523682 1.66530762 0.01047363 2.52319336 0.01586914 C3.42231445 0.0190918 4.32143555 0.02231445 5.24780273 0.02563477 C6.66609375 0.03820312 6.66609375 0.03820312 8.11303711 0.05102539 C9.06243164 0.05553711 10.01182617 0.06004883 10.98999023 0.06469727 C13.34356776 0.07652429 15.69702188 0.09300514 18.05053711 0.11352539 C18.05053711 2.75352539 18.05053711 5.39352539 18.05053711 8.11352539 C14.09053711 8.11352539 10.13053711 8.11352539 6.05053711 8.11352539 C6.05053711 11.41352539 6.05053711 14.71352539 6.05053711 18.11352539 C11.66053711 18.11352539 17.27053711 18.11352539 23.05053711 18.11352539 C23.05053711 20.75352539 23.05053711 23.39352539 23.05053711 26.11352539 C17.44053711 26.11352539 11.83053711 26.11352539 6.05053711 26.11352539 C6.05053711 29.08352539 6.05053711 32.05352539 6.05053711 35.11352539 C10.01053711 35.11352539 13.97053711 35.11352539 18.05053711 35.11352539 C18.05053711 37.75352539 18.05053711 40.39352539 18.05053711 43.11352539 C11.12053711 43.11352539 4.19053711 43.11352539 -2.94946289 43.11352539 C-2.97236884 37.15034309 -2.99229685 31.18731228 -3.00439453 25.22412109 C-3.00943567 23.19384241 -3.01626846 21.16356737 -3.02490234 19.13330078 C-3.03697756 16.22175192 -3.04269323 13.31025089 -3.04711914 10.39868164 C-3.05228043 9.4851442 -3.05744171 8.57160675 -3.0627594 7.63038635 C-3.06295457 5.45777112 -3.01158094 3.28525243 -2.94946289 1.11352539 C-1.94946289 0.11352539 -1.94946289 0.11352539 0 0 Z " fill="#0F3474" transform="translate(158.949462890625,243.886474609375)"/>
<path d="M0 0 C2.83439137 -0.10901505 5.66450203 -0.18777904 8.5 -0.25 C9.29148438 -0.28351563 10.08296875 -0.31703125 10.8984375 -0.3515625 C16.77280997 -0.44786369 21.08988153 0.70947667 26 4 C29.27595085 7.58307124 29.52682161 11.16210397 29.34765625 15.8515625 C28.80672059 19.19442334 27.49525689 20.76740173 25 23 C19.55881788 26.84864101 14.42160858 26.2349369 8 26 C8 31.61 8 37.22 8 43 C5.36 43 2.72 43 0 43 C0 34.75 0 26.5 0 18 C8.375 17.5625 8.375 17.5625 11.00927734 17.43188477 C15.13733776 17.29004058 15.13733776 17.29004058 19 16 C19 14.02 19 12.04 19 10 C12.73 9.67 6.46 9.34 0 9 C0 6.03 0 3.06 0 0 Z " fill="#0E3474" transform="translate(183,244)"/>
<path d="M0 0 C18.8258317 -0.90508806 18.8258317 -0.90508806 24.6875 3.61328125 C28.20312701 7.3277086 28.37581092 9.93752948 28.25 14.78125 C27.90138637 17.87519595 27.01570388 19.63676097 25 22 C20.61571561 25.06899907 17.12264999 26.13146299 11.8125 26.0625 C10.224375 26.041875 8.63625 26.02125 7 26 C7 31.61 7 37.22 7 43 C4.36 43 1.72 43 -1 43 C-1 34.75 -1 26.5 -1 18 C7.25 17.5625 7.25 17.5625 9.82910156 17.43188477 C10.5094043 17.39377686 11.18970703 17.35566895 11.890625 17.31640625 C12.58188477 17.27974854 13.27314453 17.24309082 13.98535156 17.20532227 C16.06628329 16.99324476 17.98572422 16.55491323 20 16 C19.39816251 13.97954558 18.72693904 11.97888961 18 10 C14.828262 8.414131 11.36486178 8.62133555 7.875 8.4375 C7.12089844 8.39431641 6.36679687 8.35113281 5.58984375 8.30664062 C3.72678112 8.2005168 1.86341476 8.09974999 0 8 C0 5.36 0 2.72 0 0 Z " fill="#7F1A1A" transform="translate(298,244)"/>
<path d="M0 0 C4.89270769 2.40019623 7.18686184 4.86277521 9 10 C9.56138108 15.23955679 8.85632372 18.56777353 6 23 C3.7102583 25.63667226 2.09831132 26.82267791 -1.37109375 27.3828125 C-5.63451842 27.57286115 -8.26617264 27.42806596 -12 25.25 C-15.78266142 20.9945059 -16.34344452 17.73442245 -16.1796875 12.17578125 C-15.80114571 7.59213397 -14.51196022 5.54852881 -11.375 2.1875 C-7.74747297 -0.6083501 -4.42636017 -0.94535038 0 0 Z " fill="#E1DEDE" transform="translate(352,252)"/>
<path d="M0 0 C0.66 0 1.32 0 2 0 C2.4846875 1.21171875 2.969375 2.4234375 3.46875 3.671875 C3.78908203 4.47254395 4.10941406 5.27321289 4.43945312 6.09814453 C5.15214084 7.88019194 5.86437341 9.66242143 6.57617188 11.44482422 C8.47771684 16.20453496 10.38693687 20.96088763 12.3125 25.7109375 C12.67923828 26.61875977 13.04597656 27.52658203 13.42382812 28.46191406 C14.13330871 30.21758881 14.84548746 31.97217596 15.56054688 33.72558594 C15.88087891 34.5199707 16.20121094 35.31435547 16.53125 36.1328125 C16.81548828 36.83293457 17.09972656 37.53305664 17.39257812 38.25439453 C18 40 18 40 18 42 C15.03 42 12.06 42 9 42 C6.16802552 34.40122878 3.51473219 26.98676972 2 19 C1.34 19 0.68 19 0 19 C-0.08636719 19.57105469 -0.17273438 20.14210938 -0.26171875 20.73046875 C-1.55910476 28.2172192 -4.1202974 34.98759444 -7 42 C-9.97 42 -12.94 42 -16 42 C-13.53753588 34.27681707 -10.6411682 26.73686637 -7.70166016 19.1862793 C-6.86769681 17.04373731 -6.03712532 14.89990305 -5.20703125 12.75585938 C-4.67727863 11.39054921 -4.14733767 10.0253121 -3.6171875 8.66015625 C-3.3692746 8.02062515 -3.12136169 7.38109406 -2.86593628 6.72218323 C-1.97666452 4.44029409 -1.09591593 2.19183186 0 0 Z " fill="#0B3172" transform="translate(229,245)"/>
<path d="M0 0 C2.64 0 5.28 0 8 0 C8 11.22 8 22.44 8 34 C9.65 34 11.3 34 13 34 C13 36.64 13 39.28 13 42 C7.06 42 1.12 42 -5 42 C-5 39.69 -5 37.38 -5 35 C-3.35 35 -1.7 35 0 35 C0 23.45 0 11.9 0 0 Z " fill="#7D1515" transform="translate(376,245)"/>
<path d="M0 0 C2.4375 1.4375 2.4375 1.4375 4 4 C4.94464697 9.65714718 4.15669668 14.15221582 1 19 C-0.6875 21.3125 -0.6875 21.3125 -3 23 C-4.26457031 23.04382813 -5.52914062 23.08765625 -6.83203125 23.1328125 C-9.43242121 23.41164701 -10.61913867 23.62237316 -12.49487305 25.48217773 C-13.80241532 27.45811547 -14.91977041 29.45393798 -16 31.5625 C-16.39316406 32.27341797 -16.78632812 32.98433594 -17.19140625 33.71679688 C-18.15301866 35.46411699 -19.08005674 37.23038693 -20 39 C-20.33 38.34 -20.66 37.68 -21 37 C-19.55331758 34.24566697 -18.00751328 31.60096956 -16.36132812 28.96289062 C-15.20156552 27.05450664 -15.20156552 27.05450664 -14 24 C-14.65812311 21.3073999 -14.65812311 21.3073999 -16 19 C-16.69258585 12.96460898 -15.8478829 9.67024413 -12.3515625 4.69921875 C-8.68055589 0.08393588 -5.94665242 -0.74333155 0 0 Z " fill="#082F71" transform="translate(77,175)"/>
<path d="M0 0 C2.64 0 5.28 0 8 0 C8 8.91 8 17.82 8 27 C5.36 27 2.72 27 0 27 C0 18.09 0 9.18 0 0 Z " fill="#7C1313" transform="translate(436,260)"/>
<path d="M0 0 C4.14581887 -0.02886751 8.29161216 -0.04675327 12.4375 -0.0625 C14.21350586 -0.07506836 14.21350586 -0.07506836 16.02539062 -0.08789062 C17.15009766 -0.09111328 18.27480469 -0.09433594 19.43359375 -0.09765625 C20.47572021 -0.10289307 21.51784668 -0.10812988 22.59155273 -0.11352539 C25 0 25 0 26 1 C26 3.31 26 5.62 26 8 C17.42 8 8.84 8 0 8 C0 5.36 0 2.72 0 0 Z " fill="#852525" transform="translate(427,244)"/>
<path d="M0 0 C0.66 0 1.32 0 2 0 C4.15294651 5.28830549 6.27933894 10.55123997 8 16 C6.2984375 16.4640625 6.2984375 16.4640625 4.5625 16.9375 C1.21224901 17.62924531 1.21224901 17.62924531 0 19 C-1.99958364 19.04080783 -4.00045254 19.04254356 -6 19 C-5.34655927 15.99695323 -4.67650389 12.99793162 -4 10 C-3.83242187 9.23816406 -3.66484375 8.47632813 -3.4921875 7.69140625 C-2.22941527 2.22941527 -2.22941527 2.22941527 0 0 Z " fill="#F4F6F9" transform="translate(100,288)"/>
<path d="M0 0 C-1 3 -1 3 -3.75 4.4375 C-4.8225 4.953125 -5.895 5.46875 -7 6 C-10.87150751 8.47410061 -10.87150751 8.47410061 -12.625 12.5 C-12.74875 13.325 -12.8725 14.15 -13 15 C-13.99 16.32 -14.98 17.64 -16 19 C-16 13.39 -16 7.78 -16 2 C-3.375 0 -3.375 0 0 0 Z " fill="#E0E0E0" transform="translate(321,268)"/>
<path d="M0 0 C0.66 0 1.32 0 2 0 C0.82519772 3.97625387 -0.45010381 6.7635933 -3 10 C-5.40108576 13.85657017 -7.44363407 17.7199937 -9 22 C-10.32 20.68 -11.64 19.36 -13 18 C-11.47654589 13.18479682 -8.74013605 9.94254139 -5.5 6.1875 C-4.75169922 5.2912793 -4.75169922 5.2912793 -3.98828125 4.37695312 C-2.70769135 2.87492074 -1.35853858 1.43191644 0 0 Z " fill="#C7CACF" transform="translate(279,249)"/>
<path d="M0 0 C0 9.57 0 19.14 0 29 C-0.33 29 -0.66 29 -1 29 C-1.12117188 28.15695312 -1.24234375 27.31390625 -1.3671875 26.4453125 C-1.53476563 25.34960938 -1.70234375 24.25390625 -1.875 23.125 C-2.03742188 22.03445313 -2.19984375 20.94390625 -2.3671875 19.8203125 C-2.76256513 16.88067286 -2.76256513 16.88067286 -5 15 C-5.67858884 10.02894221 -6.05423661 5.4623282 -3.0625 1.3125 C-1 0 -1 0 0 0 Z " fill="#DADADC" transform="translate(119,248)"/>
<path d="M0 0 C0.66 0.33 1.32 0.66 2 1 C-5.59526372 7.90635091 -5.59526372 7.90635091 -10.75 8.25 C-14.4975979 6.80861619 -16.42418704 5.04414259 -19 2 C-18.34 1.67 -17.68 1.34 -17 1 C-16.34 1.33 -15.68 1.66 -15 2 C-13.21140489 2.12207871 -11.41771619 2.17548448 -9.625 2.1875 C-8.66851562 2.20167969 -7.71203125 2.21585937 -6.7265625 2.23046875 C-3.94869229 1.9956631 -2.42924015 1.26812757 0 0 Z " fill="#D9D6D6" transform="translate(358,284)"/>
<path d="M0 0 C4.62 0 9.24 0 14 0 C12.39196015 2.27017391 11.04950728 4.16398307 9 6 C4.85013645 6.66397817 3.52572807 6.35048538 0 4 C0 2.68 0 1.36 0 0 Z " fill="#D8D8D8" transform="translate(374,287)"/>
<path d="M0 0 C0.66 0.33 1.32 0.66 2 1 C0.75747321 1.84443568 -0.4943886 2.6751458 -1.75 3.5 C-2.44609375 3.9640625 -3.1421875 4.428125 -3.859375 4.90625 C-6 6 -6 6 -10 6 C-10.66 10.29 -11.32 14.58 -12 19 C-12.33 19 -12.66 19 -13 19 C-13 13.39 -13 7.78 -13 2 C-10.20052083 1.77213542 -7.40104167 1.54427083 -4.6015625 1.31640625 C-2.02072387 1.15034374 -2.02072387 1.15034374 0 0 Z " fill="#C4C7CC" transform="translate(204,268)"/>
<path d="M0 0 C2.625 0.375 2.625 0.375 5 1 C5.625 3.375 5.625 3.375 6 6 C5.34 6.66 4.68 7.32 4 8 C1.375 7.625 1.375 7.625 -1 7 C-1.625 4.625 -1.625 4.625 -2 2 C-1.34 1.34 -0.68 0.68 0 0 Z " fill="#842323" transform="translate(346,262)"/>
<path d="M0 0 C2.375 -0.125 2.375 -0.125 5 0 C5.66 0.66 6.32 1.32 7 2 C6.625 4.125 6.625 4.125 6 6 C3.625 6.625 3.625 6.625 1 7 C0.34 6.34 -0.32 5.68 -1 5 C-0.625 2.375 -0.625 2.375 0 0 Z " fill="#852323" transform="translate(455,280)"/>
<path d="M0 0 C3.3 0 6.6 0 10 0 C6 3 6 3 3.796875 4.33203125 C1.29640441 6.65312026 1.4076728 8.33695298 1.25 11.6875 C1.19328125 12.68136719 1.1365625 13.67523438 1.078125 14.69921875 C1.05234375 15.45847656 1.0265625 16.21773438 1 17 C0.67 17 0.34 17 0 17 C0 11.39 0 5.78 0 0 Z " fill="#C0ACAC" transform="translate(305,270)"/>
<path d="M0 0 C1.41778293 2.83556587 0.86257622 4.9908706 0.5625 8.125 C0.46066406 9.22070312 0.35882813 10.31640625 0.25390625 11.4453125 C0.17011719 12.28835938 0.08632812 13.13140625 0 14 C-0.99 13.67 -1.98 13.34 -3 13 C-3.08086147 11.20906809 -3.13912702 9.41710372 -3.1875 7.625 C-3.22230469 6.62726563 -3.25710937 5.62953125 -3.29296875 4.6015625 C-3.14794922 3.31378906 -3.14794922 3.31378906 -3 2 C-2.01 1.34 -1.02 0.68 0 0 Z " fill="#E9EAEA" transform="translate(117,250)"/>
<path d="M0 0 C0.66 0.33 1.32 0.66 2 1 C1.52949219 1.36351562 1.05898437 1.72703125 0.57421875 2.1015625 C-3.47192944 5.36863868 -6.00283426 8.06582581 -8 13 C-8.33 13 -8.66 13 -9 13 C-9.25 6.375 -9.25 6.375 -7 3 C-5.0625 2.4375 -5.0625 2.4375 -3 2 C-2.01 1.34 -1.02 0.68 0 0 Z " fill="#E3E3E3" transform="translate(201,271)"/>
<path d="M0 0 C0.99 0.33 1.98 0.66 3 1 C3.33 1.99 3.66 2.98 4 4 C3.4225 4.0825 2.845 4.165 2.25 4.25 C-0.6159304 5.20531013 -1.9990764 6.78469173 -4 9 C-4.66 8.34 -5.32 7.68 -6 7 C-4.02 4.69 -2.04 2.38 0 0 Z " fill="#C0C3C7" transform="translate(259,272)"/>
<path d="M0 0 C0.5259375 0.7734375 0.5259375 0.7734375 1.0625 1.5625 C3.05930028 3.36377764 3.05930028 3.36377764 6.4375 2.8125 C9.34040205 2.15043462 11.4755053 1.51469682 14 0 C12.39196015 2.27017391 11.04950728 4.16398307 9 6 C4.85013645 6.66397817 3.52572807 6.35048538 0 4 C0 2.68 0 1.36 0 0 Z " fill="#E6E6E6" transform="translate(374,287)"/>
<path d="M0 0 C3.96 0 7.92 0 12 0 C12 0.33 12 0.66 12 1 C10.948125 1.0825 9.89625 1.165 8.8125 1.25 C4.72952791 2.05320762 2.9877273 3.19334709 0 6 C0 4.02 0 2.04 0 0 Z " fill="#C3C5CA" transform="translate(165,252)"/>
<path d="M0 0 C0.33 0 0.66 0 1 0 C1 1.65 1 3.3 1 5 C1.66 5 2.32 5 3 5 C2.67 8.63 2.34 12.26 2 16 C1.67 16 1.34 16 1 16 C0.855625 15.236875 0.71125 14.47375 0.5625 13.6875 C0.0367406 10.91827092 0.0367406 10.91827092 -1 8 C-0.83988879 5.29876894 -0.39559392 2.68124769 0 0 Z " fill="#C6BABA" transform="translate(326,253)"/>
<path d="M0 0 C0.8353125 0.37125 0.8353125 0.37125 1.6875 0.75 C-1.92473321 3.18615728 -5.55686571 5.54080336 -9.3125 7.75 C-7.69865111 3.642021 -4.79776509 -0.51867731 0 0 Z " fill="#CAC2C2" transform="translate(346.3125,252.25)"/>
<path d="M0 0 C0.66 0.33 1.32 0.66 2 1 C-0.475 4.465 -0.475 4.465 -3 8 C-3.66 7.67 -4.32 7.34 -5 7 C-3.70700306 4.11562221 -2.34058637 2.12780579 0 0 Z " fill="#E4E4E4" transform="translate(274,259)"/>
<path d="M0 0 C-1.16142685 4.35535069 -2.07699505 6.64619703 -6 9 C-5.38983051 3.50847458 -5.38983051 3.50847458 -3.5625 1.125 C-2 0 -2 0 0 0 Z " fill="#D7D8DB" transform="translate(281,249)"/>
<path d="M0 0 C-1 3 -1 3 -4.0625 4.6875 C-5.031875 5.120625 -6.00125 5.55375 -7 6 C-7 3 -7 3 -6 1 C-3 0 -3 0 0 0 Z " fill="#D4CECE" transform="translate(321,268)"/>
<path d="M0 0 C0 3.88182751 -0.99521992 5.91792914 -3.625 8.75 C-4.305625 9.36875 -4.305625 9.36875 -5 10 C-5.66 9.67 -6.32 9.34 -7 9 C-5.76465298 5.29395893 -3.80264776 3.66251537 -1 1 C-0.67 0.67 -0.34 0.34 0 0 Z " fill="#D6D7DA" transform="translate(212,261)"/>
</svg>
